<?xml version="1.0" encoding="UTF-8"?>
<svg xmlns="http://www.w3.org/2000/svg" xmlns:xlink="http://www.w3.org/1999/xlink" width="2000pt" height="2000pt" viewBox="0 0 2000 2000" version="1.1">
<g id="surface1">
<path style=" stroke:none;fill-rule:evenodd;fill:rgb(13.299561%,15.299988%,21.199036%);fill-opacity:1;" d="M 1007.84375 839.113281 C 1007.859375 838.785156 1007.871094 838.441406 1007.871094 838.097656 C 1007.789062 834.207031 1004.964844 831.410156 1001.085938 831.394531 C 998.671875 831.382812 996.320312 831.902344 994.394531 833.382812 C 992.40625 834.929688 990.5625 836.703125 988.734375 838.441406 C 988.265625 838.894531 987.921875 839.582031 987.773438 840.210938 C 987.238281 842.40625 987.292969 844.570312 988.335938 846.640625 C 988.636719 847.246094 989.007812 847.835938 989.488281 848.300781 C 994.792969 853.386719 1001.289062 851.261719 1004.484375 847.902344 C 1006.824219 845.464844 1007.71875 842.429688 1007.84375 839.113281 M 1036.871094 776.046875 C 1036.855469 776.332031 1036.855469 776.675781 1036.84375 777.019531 C 1036.472656 783.0625 1038.898438 788.179688 1042.203125 792.992188 C 1042.585938 793.539062 1043.109375 794.007812 1043.609375 794.457031 C 1045.671875 796.296875 1048.105469 797.421875 1050.816406 797.914062 C 1053.871094 798.476562 1056.847656 798.367188 1059.753906 797.089844 C 1062.234375 795.992188 1064.648438 794.8125 1066.898438 793.28125 C 1068.859375 791.949219 1070.648438 790.414062 1072.15625 788.5625 C 1072.917969 787.65625 1073.449219 786.628906 1073.78125 785.449219 C 1075.105469 780.816406 1075.4375 776.167969 1074.152344 771.464844 C 1073.667969 769.667969 1073.203125 767.871094 1072.601562 766.132812 C 1071.203125 762.167969 1068.460938 759.6875 1064.375 758.644531 C 1062.703125 758.234375 1061.035156 758.027344 1059.351562 758.191406 C 1054.460938 758.644531 1049.660156 759.550781 1045.15625 761.675781 C 1041.65625 763.320312 1039.105469 765.855469 1037.71875 769.53125 C 1036.945312 771.628906 1036.554688 773.753906 1036.871094 776.046875 M 940.964844 768.148438 C 940.976562 767.597656 940.976562 766.914062 941.019531 766.226562 C 941.273438 762.402344 940.210938 758.90625 938.40625 755.546875 C 936.234375 751.515625 933.832031 747.636719 931.273438 743.851562 C 929.851562 741.765625 928.199219 739.804688 926.457031 737.984375 C 925.167969 736.652344 923.671875 735.445312 922.082031 734.527344 C 917.519531 731.867188 912.5 730.375 907.316406 729.398438 C 906.496094 729.234375 905.617188 729.179688 904.78125 729.277344 C 901.4375 729.660156 898.082031 730.128906 894.730469 730.566406 C 887.773438 732.773438 880.980469 735.308594 875.195312 739.957031 C 872.355469 742.234375 870.421875 745.195312 868.714844 748.320312 C 868.398438 748.898438 868.320312 749.597656 868.148438 750.253906 C 867.671875 752.050781 867.390625 753.929688 866.742188 755.65625 C 865.382812 759.195312 865.257812 762.9375 864.78125 766.625 C 864.332031 770.050781 864.992188 773.371094 866.433594 776.511719 C 868.550781 781.132812 870.929688 785.601562 874.742188 789.136719 C 875.859375 790.167969 876.9375 791.234375 878.328125 791.921875 C 880.316406 792.910156 882.023438 794.28125 883.761719 795.636719 C 885.621094 797.089844 887.59375 798.40625 889.589844 799.667969 C 891.164062 800.667969 892.894531 801.449219 894.785156 801.574219 C 899.1875 801.847656 903.5625 802.039062 907.789062 800.3125 C 911.238281 798.914062 914.867188 798.0625 918.464844 797.105469 C 922.386719 796.0625 926.238281 794.730469 929.699219 792.523438 C 932.441406 790.785156 934.78125 788.644531 936.34375 785.695312 C 939.25 780.253906 941.199219 774.550781 940.964844 768.148438 M 1081.054688 1792.121094 C 1080.664062 1791.832031 1080.308594 1791.390625 1079.867188 1791.269531 C 1078.234375 1790.816406 1076.5625 1790.503906 1074.921875 1790.089844 C 1070.804688 1789.0625 1066.800781 1787.746094 1062.902344 1786.074219 C 1059.890625 1784.769531 1057.328125 1782.867188 1054.960938 1780.683594 C 1054.207031 1779.984375 1053.570312 1779.191406 1052.816406 1778.503906 C 1048.839844 1774.882812 1046.195312 1770.402344 1044.203125 1765.46875 C 1042.257812 1760.585938 1040.773438 1755.566406 1039.398438 1750.480469 C 1038.90625 1748.671875 1038.671875 1746.832031 1038.597656 1744.96875 C 1038.417969 1740.730469 1038.242188 1736.507812 1038.078125 1732.285156 C 1038.0625 1732.105469 1038.0625 1731.941406 1038.046875 1731.765625 C 1037.1875 1723.964844 1037.859375 1716.203125 1038.496094 1708.441406 C 1038.605469 1707.085938 1038.5625 1705.726562 1038.695312 1704.382812 C 1039.03125 1700.832031 1039.398438 1697.308594 1039.785156 1693.773438 C 1039.914062 1692.59375 1040.230469 1691.425781 1040.296875 1690.25 C 1040.722656 1683.132812 1042.003906 1676.128906 1042.792969 1669.066406 C 1043.535156 1662.320312 1044.535156 1655.617188 1045.28125 1648.882812 C 1045.578125 1646.195312 1045.617188 1643.46875 1045.769531 1640.765625 C 1046.179688 1634.171875 1046.578125 1627.578125 1046.984375 1620.980469 C 1047.007812 1620.640625 1047.070312 1620.308594 1047.070312 1619.96875 C 1047.03125 1612.523438 1047.351562 1605.0625 1046.925781 1597.605469 C 1046.824219 1595.589844 1046.730469 1593.546875 1046.769531 1591.53125 C 1046.851562 1584.910156 1047.007812 1578.300781 1047.125 1571.691406 C 1047.148438 1570.511719 1047.125 1569.320312 1047.078125 1568.140625 C 1046.796875 1561.53125 1046.496094 1554.9375 1046.222656 1548.34375 C 1046.152344 1546.820312 1046.207031 1545.285156 1046.152344 1543.761719 C 1046.058594 1541.390625 1045.878906 1539.035156 1045.78125 1536.664062 C 1045.605469 1532.945312 1045.371094 1529.214844 1045.359375 1525.488281 C 1045.371094 1522.921875 1045.097656 1520.414062 1044.574219 1517.933594 C 1043.824219 1514.449219 1043.367188 1510.925781 1042.957031 1507.386719 C 1042.410156 1502.6875 1041.890625 1497.96875 1040.675781 1493.363281 C 1039.339844 1488.289062 1038.730469 1483.066406 1037.871094 1477.882812 C 1037.117188 1473.375 1036.226562 1468.886719 1035.882812 1464.324219 C 1035.816406 1463.308594 1035.601562 1462.292969 1035.609375 1461.292969 C 1035.621094 1457.042969 1035.0625 1452.847656 1034.621094 1448.636719 C 1034.421875 1446.625 1034.03125 1444.621094 1033.65625 1442.621094 C 1032.976562 1439.125 1032.402344 1435.628906 1032.058594 1432.089844 C 1031.6875 1428.210938 1031.015625 1424.355469 1030.316406 1420.53125 C 1029.179688 1414.347656 1028.628906 1408.125 1028.398438 1401.855469 C 1028.246094 1397.785156 1028.027344 1393.753906 1027.25 1389.734375 C 1026.121094 1383.910156 1025.160156 1378.066406 1024.105469 1372.226562 C 1023.804688 1370.570312 1023.433594 1368.925781 1023.066406 1367.265625 C 1022.664062 1365.441406 1022.226562 1363.644531 1022.105469 1361.765625 C 1021.941406 1359.394531 1021.242188 1357.121094 1020.609375 1354.832031 C 1019.292969 1350.097656 1018.085938 1345.355469 1017.566406 1340.433594 C 1017.222656 1337.417969 1016.441406 1334.441406 1015.933594 1331.4375 C 1015.167969 1326.941406 1014.425781 1322.429688 1013.355469 1317.988281 C 1012.636719 1315.027344 1011.785156 1312.09375 1011.148438 1309.117188 C 1010.367188 1305.46875 1009.730469 1301.808594 1009.078125 1298.136719 C 1008.875 1296.96875 1008.804688 1295.777344 1008.722656 1294.597656 C 1008.367188 1289.703125 1008.378906 1284.796875 1007.640625 1279.914062 C 1007.214844 1277.078125 1007.214844 1274.183594 1006.742188 1271.332031 C 1006.234375 1268.148438 1005.808594 1264.96875 1004.945312 1261.855469 C 1004.546875 1260.390625 1004.183594 1258.882812 1004.144531 1257.375 C 1004.0625 1255.070312 1003.117188 1253.148438 1002.167969 1251.148438 C 1000.058594 1246.667969 996.59375 1243.992188 991.8125 1242.976562 C 989.816406 1242.550781 987.828125 1242.15625 985.820312 1241.851562 C 981.628906 1241.25 977.460938 1240.523438 973.203125 1240.507812 C 971.699219 1240.496094 970.1875 1240.097656 968.707031 1239.78125 C 966.054688 1239.21875 963.421875 1238.601562 960.777344 1238.015625 C 958.292969 1237.464844 955.832031 1236.820312 953.523438 1235.738281 C 951.335938 1234.710938 949.421875 1233.3125 948.121094 1231.253906 C 945.078125 1226.414062 940.585938 1223.589844 935.308594 1221.808594 C 934.671875 1221.589844 934.027344 1221.371094 933.410156 1221.09375 C 929.84375 1219.464844 926.082031 1218.515625 922.34375 1217.394531 C 920.046875 1216.707031 917.757812 1216.257812 915.371094 1216.199219 C 911.800781 1216.132812 908.285156 1215.761719 904.792969 1214.898438 C 902.265625 1214.265625 900.039062 1213.199219 898.15625 1211.375 C 897.433594 1210.660156 896.726562 1209.933594 895.933594 1209.300781 C 893.984375 1207.742188 891.761719 1207.011719 889.289062 1207.535156 C 887.472656 1207.933594 885.632812 1208.371094 883.933594 1209.085938 C 876.878906 1212.058594 870.214844 1215.691406 864.5625 1221 C 862.09375 1223.332031 859.550781 1225.550781 857.410156 1228.199219 C 856.882812 1228.867188 856.316406 1229.5 855.71875 1230.089844 C 849.574219 1236.21875 844.277344 1243.046875 839.242188 1250.050781 C 835.695312 1255.015625 832.28125 1260.058594 829.230469 1265.351562 C 826.6875 1269.742188 823.960938 1274.046875 821.070312 1278.214844 C 816.621094 1284.617188 812.464844 1291.210938 808.210938 1297.738281 C 804.144531 1303.976562 799.976562 1310.171875 795.5625 1316.179688 C 794.355469 1317.808594 792.996094 1319.332031 791.625 1320.828125 C 789.105469 1323.570312 786.578125 1326.3125 784.574219 1329.476562 C 784.113281 1330.191406 783.605469 1330.878906 783.03125 1331.492188 C 779.144531 1335.769531 775.914062 1340.554688 772.644531 1345.289062 C 771.875 1346.394531 771.136719 1347.535156 770.308594 1348.617188 C 765.773438 1354.554688 762.027344 1361 758.152344 1367.375 C 752.070312 1377.355469 746.558594 1387.667969 740.933594 1397.910156 C 740.355469 1398.949219 739.855469 1400.019531 739.238281 1401.035156 C 737.257812 1404.285156 736.425781 1407.902344 735.800781 1411.59375 C 735.308594 1414.417969 734.835938 1417.269531 734.316406 1420.09375 C 734.164062 1420.929688 733.953125 1421.75 733.65625 1422.546875 C 731.757812 1427.800781 729.6875 1432.996094 726.890625 1437.859375 C 726.070312 1439.328125 725.019531 1440.671875 724.011719 1442.03125 C 723.304688 1442.976562 722.457031 1443.8125 721.769531 1444.785156 C 718.183594 1449.816406 713.144531 1452.859375 707.503906 1454.960938 C 704.5 1456.082031 701.375 1456.890625 698.285156 1457.769531 C 692.402344 1459.457031 686.59375 1459.195312 680.796875 1457.234375 C 674.050781 1454.945312 668.277344 1451.3125 663.992188 1445.511719 C 661.667969 1442.359375 659.886719 1438.875 658.503906 1435.242188 C 657.398438 1432.390625 656.898438 1429.359375 656.972656 1426.277344 C 657.128906 1419.75 658.269531 1413.484375 661.574219 1407.738281 C 662 1407 662.382812 1406.230469 662.902344 1405.574219 C 667.003906 1400.378906 671.191406 1395.261719 676.585938 1391.3125 C 679.035156 1389.515625 681.480469 1387.695312 684.191406 1386.253906 C 684.9375 1385.871094 685.664062 1385.429688 686.375 1384.964844 C 690.914062 1382.003906 695.425781 1379.003906 699.96875 1376.054688 C 702.40625 1374.476562 704.679688 1372.734375 706.820312 1370.800781 C 713.222656 1364.988281 719.644531 1359.21875 726.0625 1353.417969 C 729.839844 1349.992188 733.035156 1346.027344 736.507812 1342.324219 C 737.449219 1341.351562 738.285156 1340.242188 739.238281 1339.296875 C 745.152344 1333.425781 750.179688 1326.832031 755.167969 1320.179688 C 757.097656 1317.605469 759.164062 1315.136719 761.238281 1312.683594 C 763.867188 1309.585938 766.5625 1306.539062 769.25 1303.480469 C 770.710938 1301.839844 772.191406 1300.207031 773.699219 1298.589844 C 777.632812 1294.390625 781.613281 1290.210938 785.539062 1286.003906 C 786.703125 1284.765625 787.792969 1283.476562 788.859375 1282.164062 C 791.507812 1278.855469 794.183594 1275.566406 796.742188 1272.195312 C 798.269531 1270.167969 799.675781 1268.042969 800.996094 1265.875 C 803.308594 1262.117188 805.789062 1258.484375 808.40625 1254.945312 C 811.019531 1251.394531 813.496094 1247.75 815.878906 1244.046875 C 817.4375 1241.621094 819.082031 1239.261719 820.796875 1236.945312 C 825.4375 1230.691406 830.042969 1224.414062 834.054688 1217.722656 C 836.050781 1214.378906 838.425781 1211.261719 840.785156 1208.164062 C 843.605469 1204.464844 845.425781 1200.378906 846.832031 1195.949219 C 848.957031 1189.285156 848.902344 1182.625 847.65625 1175.878906 C 847.394531 1174.507812 846.785156 1173.3125 845.535156 1172.546875 C 845.25 1172.367188 844.960938 1172.1875 844.679688 1171.996094 C 841.738281 1169.980469 839.957031 1167.199219 839.183594 1163.742188 C 839.039062 1163.070312 838.929688 1162.414062 838.738281 1161.753906 C 838.042969 1159.382812 836.640625 1157.53125 834.515625 1156.257812 C 834.226562 1156.078125 833.921875 1155.898438 833.617188 1155.761719 C 830.042969 1154.308594 827.464844 1151.675781 825.074219 1148.742188 C 821.585938 1144.492188 821.550781 1144.519531 816.757812 1142.382812 C 815.992188 1142.023438 815.183594 1141.761719 814.414062 1141.410156 C 810.710938 1139.722656 808.011719 1137.019531 806.441406 1133.25 C 805.652344 1131.386719 804.871094 1129.507812 804.246094 1127.574219 C 803.046875 1123.84375 800.8125 1121.007812 797.40625 1119.089844 C 795.78125 1118.167969 794.175781 1117.222656 792.519531 1116.371094 C 787.449219 1113.78125 784.6875 1109.613281 783.933594 1103.976562 C 783.667969 1101.976562 783.070312 1100.03125 782.582031 1098.054688 C 782.035156 1095.832031 780.898438 1093.941406 779.101562 1092.570312 C 776.277344 1090.445312 774.6875 1087.566406 773.308594 1084.398438 C 770.449219 1077.804688 771.710938 1078.816406 765.488281 1074.183594 C 764.175781 1073.222656 763.464844 1071.933594 763.210938 1070.371094 C 763.082031 1069.535156 763.003906 1068.699219 762.976562 1067.851562 C 762.949219 1067.011719 762.9375 1066.148438 763.0625 1065.3125 C 763.445312 1062.65625 762.644531 1060.734375 760.058594 1059.554688 C 758.699219 1058.9375 757.464844 1057.953125 756.285156 1057.003906 C 754.621094 1055.648438 753.832031 1053.824219 753.859375 1051.644531 C 753.886719 1049.410156 754.210938 1047.257812 755.273438 1045.253906 C 755.738281 1044.363281 756.203125 1043.457031 756.582031 1042.511719 C 757.753906 1039.59375 758.058594 1036.589844 757 1033.574219 C 755.898438 1030.488281 755.390625 1027.363281 755.972656 1024.097656 C 756.183594 1022.878906 755.839844 1021.753906 755.160156 1020.726562 C 754.503906 1019.726562 753.875 1018.722656 753.222656 1017.738281 C 751.871094 1015.667969 751.417969 1013.378906 751.652344 1010.949219 C 751.734375 1009.933594 751.859375 1008.910156 752.097656 1007.933594 C 753.121094 1003.589844 752.117188 999.53125 750.390625 995.566406 C 750.125 994.964844 749.796875 994.359375 749.519531 993.746094 C 748.511719 991.523438 748.203125 989.21875 748.492188 986.804688 C 748.78125 984.449219 749.019531 982.089844 749.28125 979.730469 C 749.492188 977.824219 749.128906 976.054688 748.308594 974.316406 C 747.203125 972.023438 746.265625 969.667969 745.277344 967.324219 C 743.835938 963.949219 743.34375 960.523438 744.496094 956.929688 C 745.824219 952.871094 746.457031 948.703125 746.242188 944.425781 C 746.167969 942.863281 746.53125 941.394531 747.265625 940.011719 C 747.652344 939.257812 747.945312 938.460938 748.375 937.75 C 751.035156 933.335938 750.523438 934.308594 749.457031 929.6875 C 749.390625 929.359375 749.246094 929.042969 749.171875 928.714844 C 748.003906 923.558594 747.765625 924.066406 749.625 918.855469 C 749.851562 918.210938 750.0625 917.566406 750.269531 916.921875 C 750.898438 914.949219 751.050781 912.945312 750.535156 910.902344 C 750.242188 909.765625 749.917969 908.628906 749.679688 907.460938 C 749.046875 904.378906 749.210938 901.386719 750.84375 898.605469 C 751.804688 897 752.703125 895.371094 753.707031 893.804688 C 755.367188 891.242188 755.773438 888.472656 755.199219 885.523438 C 755.128906 885.195312 755.054688 884.867188 754.96875 884.539062 C 753.832031 879.671875 755.53125 875.570312 758.464844 871.800781 C 760.261719 870.441406 760.601562 868.480469 760.777344 866.382812 C 761.03125 863.449219 760.457031 860.667969 759.371094 857.953125 C 757.78125 853.976562 755.480469 850.453125 752.394531 847.464844 C 749.703125 844.871094 746.855469 842.5 743.90625 840.222656 C 737.859375 835.535156 731.363281 831.53125 725.089844 827.214844 C 721.597656 824.8125 717.785156 822.90625 713.824219 821.386719 C 705.875 818.355469 698.53125 814.144531 691.238281 809.855469 C 689.050781 808.566406 686.84375 807.316406 684.460938 806.386719 C 678.945312 804.207031 673.644531 801.558594 668.414062 798.777344 C 666.179688 797.570312 663.871094 796.515625 661.585938 795.417969 C 659.75 794.554688 657.84375 793.800781 656.039062 792.882812 C 651.960938 790.796875 647.753906 789.027344 643.550781 787.21875 C 638.691406 785.121094 633.617188 783.859375 628.40625 783.132812 C 626.214844 782.816406 624.054688 782.433594 621.894531 782.007812 C 619.070312 781.445312 616.226562 781.007812 613.367188 780.675781 C 610.652344 780.363281 608.027344 779.71875 605.414062 778.992188 C 603.933594 778.59375 602.464844 778.304688 600.945312 778.222656 C 597.886719 778.085938 594.871094 777.6875 591.839844 777.238281 C 589.003906 776.8125 586.125 776.6875 583.242188 776.539062 C 580.867188 776.402344 578.527344 776.15625 576.210938 775.578125 C 573.425781 774.867188 570.5625 774.441406 567.765625 773.808594 C 564.960938 773.152344 562.144531 772.601562 559.34375 771.863281 C 555.589844 770.875 551.738281 770.230469 547.910156 769.476562 C 542.625 768.410156 538.136719 765.953125 534.1875 762.238281 C 531.019531 759.277344 528.332031 756.148438 527.34375 751.816406 C 527.234375 751.324219 527.050781 750.832031 526.796875 750.390625 C 525.136719 747.417969 525.328125 744.179688 525.480469 740.972656 C 525.523438 740.136719 525.753906 739.273438 526.078125 738.519531 C 527.550781 735.0625 529.347656 731.800781 532.074219 729.167969 C 533.417969 727.867188 534.789062 726.617188 536.1875 725.382812 C 540.136719 721.929688 544.765625 720.089844 549.941406 719.351562 C 553.148438 718.882812 556.34375 718.84375 559.566406 718.898438 C 562.855469 718.9375 565.925781 719.71875 568.867188 721.144531 C 571.460938 722.410156 574.007812 723.753906 576.621094 724.972656 C 581.84375 727.386719 587.164062 729.578125 592.757812 730.992188 C 596.734375 731.992188 600.492188 733.472656 604.085938 735.421875 C 607.074219 737.023438 610.15625 738.410156 613.140625 740.011719 C 616.265625 741.714844 619.386719 743.425781 622.367188 745.347656 C 624.390625 746.648438 626.507812 747.609375 628.761719 748.390625 C 631.480469 749.308594 634.179688 750.308594 636.859375 751.339844 C 639.074219 752.203125 641.164062 753.3125 643.144531 754.628906 C 646.683594 756.984375 650.460938 758.878906 654.28125 760.730469 C 656.40625 761.769531 658.460938 762.964844 660.558594 764.0625 C 663.863281 765.773438 667.140625 767.558594 670.5 769.164062 C 673.707031 770.699219 676.9375 772.136719 679.835938 774.25 C 681.605469 775.550781 683.605469 776.523438 685.492188 777.648438 C 693.648438 782.488281 701.320312 788.109375 709.628906 792.71875 C 713.476562 794.84375 717.347656 796.925781 721.484375 798.476562 C 723.875 799.382812 726.09375 800.558594 728.207031 802.027344 C 729.738281 803.066406 731.394531 803.945312 733.003906 804.863281 C 734.625 805.808594 736.246094 806.714844 737.875 807.621094 C 738.765625 808.113281 739.628906 808.648438 740.566406 809.035156 C 745.441406 811.019531 750.027344 813.570312 754.738281 815.875 C 756.898438 816.945312 759.082031 817.726562 761.511719 817.804688 C 762.691406 817.847656 763.882812 817.945312 765.0625 818.136719 C 769.378906 818.847656 773.460938 817.972656 777.441406 816.339844 C 778.246094 816.011719 778.921875 815.546875 779.371094 814.777344 C 779.675781 814.242188 779.617188 813.226562 779.171875 812.886719 C 778.492188 812.390625 777.8125 811.882812 777.09375 811.460938 C 776.070312 810.84375 774.96875 810.375 774.015625 809.691406 C 772.5625 808.664062 771.78125 807.210938 771.726562 805.371094 C 771.644531 802.65625 772.6875 800.433594 774.578125 798.558594 C 775.441406 797.722656 776.492188 797.171875 777.660156 796.855469 C 779.652344 796.347656 781.660156 796.078125 783.679688 796.597656 C 786.675781 797.378906 789.742188 797.242188 792.773438 797.542969 C 793.617188 797.625 794.472656 797.570312 795.300781 797.472656 C 799.632812 796.898438 803.046875 794.992188 804.761719 790.785156 C 805.597656 788.726562 806.742188 786.863281 807.992188 785.039062 C 808.285156 784.628906 808.519531 784.175781 808.820312 783.761719 C 810.820312 781.089844 810.683594 778.457031 808.757812 775.8125 C 807.105469 773.5625 805.089844 771.863281 802.320312 771.148438 C 798.886719 770.246094 795.519531 769.105469 792.023438 768.394531 C 790.042969 767.980469 788.128906 767.203125 786.15625 766.75 C 780.539062 765.511719 774.925781 764.253906 769.140625 763.9375 C 766.617188 763.800781 764.074219 763.417969 761.613281 762.839844 C 758.464844 762.085938 755.300781 761.605469 752.085938 761.386719 C 747.621094 761.085938 743.441406 759.796875 739.511719 757.683594 C 738.148438 756.945312 736.96875 756.011719 736.03125 754.78125 C 734.570312 752.847656 734.492188 750.171875 735.777344 748.117188 C 737.574219 745.210938 740.101562 743.398438 743.453125 742.714844 C 744.277344 742.550781 745.101562 742.332031 745.929688 742.207031 C 749.390625 741.714844 752.683594 742.054688 755.617188 744.195312 C 756.570312 744.90625 757.589844 745.523438 758.582031 746.167969 C 763.457031 749.335938 768.765625 751.53125 774.378906 752.941406 C 777.824219 753.804688 781.308594 754.546875 784.792969 755.257812 C 787.78125 755.875 790.761719 756.464844 793.632812 757.535156 C 794.421875 757.824219 795.273438 757.972656 796.09375 758.164062 C 799.878906 759.070312 803.652344 760.03125 807.449219 760.851562 C 811.964844 761.839844 816.550781 761.746094 821.125 761.402344 C 822.601562 761.292969 824.039062 760.59375 825.484375 760.125 C 827.042969 759.632812 828.023438 758.550781 828.664062 757.054688 C 829.503906 755.136719 829.789062 753.148438 829.441406 751.105469 C 829.058594 748.746094 828.359375 746.484375 827.316406 744.34375 C 826.710938 743.097656 825.882812 742.042969 824.699219 741.300781 C 821.25 739.148438 817.980469 736.734375 814.167969 735.214844 C 811.816406 734.253906 809.546875 733.117188 807.230469 732.074219 C 805.816406 731.441406 804.578125 730.566406 803.515625 729.441406 C 801.550781 727.34375 800.710938 724.890625 801.039062 721.996094 C 801.621094 716.925781 806.132812 715.539062 809.59375 716.8125 C 810.375 717.101562 811.164062 717.484375 811.828125 717.980469 C 814.542969 719.996094 817.527344 721.640625 820.089844 723.886719 C 822.261719 725.78125 824.683594 727.371094 827.152344 728.851562 C 830.125 730.632812 833.339844 731.511719 836.816406 731.566406 C 838.804688 731.59375 840.53125 730.992188 841.863281 729.578125 C 843.027344 728.359375 844.015625 726.972656 844.988281 725.589844 C 845.359375 725.054688 845.484375 724.339844 845.660156 723.695312 C 846.949219 718.871094 847.019531 713.976562 846.660156 709.054688 C 846.566406 707.710938 846.359375 706.367188 846.332031 705.007812 C 846.277344 700.058594 845.417969 695.234375 844.441406 690.421875 C 843.796875 687.265625 843.246094 684.101562 842.78125 680.917969 C 842.574219 679.589844 842.574219 678.207031 842.65625 676.859375 C 842.84375 673.652344 842.90625 670.40625 843.425781 667.25 C 844.789062 658.96875 849.769531 654.511719 857.710938 653.949219 C 860.578125 653.746094 863.472656 653.933594 866.351562 654.089844 C 867.515625 654.140625 868.6875 654.457031 869.8125 654.789062 C 872.257812 655.5 874.707031 656.128906 877.207031 656.597656 C 880.546875 657.214844 883.785156 658.226562 886.667969 660.132812 C 887.367188 660.601562 888.136719 660.984375 888.917969 661.300781 C 893.183594 663.039062 896.972656 665.605469 900.839844 668.042969 C 903.121094 669.5 905.300781 671.117188 907.777344 672.265625 C 908.695312 672.679688 909.527344 673.308594 910.3125 673.9375 C 913.777344 676.710938 917.667969 678.796875 921.617188 680.726562 C 923.871094 681.839844 926.382812 682.453125 928.789062 683.25 C 930.722656 683.867188 932.667969 684.429688 934.601562 685.046875 C 935.410156 685.292969 936.207031 685.59375 937 685.855469 C 939.457031 686.648438 941.910156 687.214844 944.40625 685.976562 C 944.699219 685.828125 945.0625 685.800781 945.382812 685.730469 C 947.949219 685.140625 950.507812 685.183594 952.808594 686.484375 C 954.6875 687.542969 956.59375 687.789062 958.664062 687.542969 C 960.53125 687.324219 962.414062 687.324219 964.238281 687.761719 C 966.355469 688.253906 967.851562 687.484375 969.070312 685.828125 C 969.683594 685.019531 970.351562 684.25 971.011719 683.46875 C 972.109375 682.195312 973.183594 680.878906 974.335938 679.632812 C 975.007812 678.890625 975.777344 678.191406 976.558594 677.558594 C 979.65625 674.996094 983.234375 674.449219 987.085938 675.132812 C 988.292969 675.351562 989.28125 675.984375 990.246094 676.699219 C 992.28125 678.21875 994.257812 679.796875 996.339844 681.261719 C 997.859375 682.34375 999.46875 683.292969 1001.050781 684.265625 C 1002.675781 685.25 1004.457031 685.757812 1006.363281 685.757812 C 1011.78125 685.730469 1017.195312 685.925781 1022.5625 684.769531 C 1023.871094 684.5 1025.257812 684.484375 1026.601562 684.417969 C 1027.957031 684.347656 1029.300781 684.417969 1030.671875 684.347656 C 1033.578125 684.195312 1036.335938 683.511719 1039 682.304688 C 1045.660156 679.273438 1051.964844 675.679688 1057.628906 671.007812 C 1060.234375 668.851562 1062.921875 666.769531 1065.292969 664.332031 C 1065.757812 663.847656 1066.265625 663.398438 1066.792969 662.972656 C 1072.09375 658.707031 1076.8125 653.855469 1081.363281 648.824219 C 1085.84375 643.886719 1090.960938 639.773438 1096.855469 636.632812 C 1097.757812 636.15625 1098.652344 635.660156 1099.507812 635.113281 C 1103.613281 632.5625 1108.222656 631.421875 1112.867188 630.449219 C 1114.417969 630.121094 1115.871094 630.476562 1117.242188 631.328125 C 1119.148438 632.519531 1120.710938 634 1121.890625 635.921875 C 1123.660156 638.828125 1125.238281 641.828125 1126.304688 645.050781 C 1127.101562 647.464844 1127.980469 649.863281 1128.527344 652.34375 C 1129.945312 658.804688 1132.078125 665.070312 1133.707031 671.460938 C 1134.050781 672.761719 1134.53125 674.050781 1134.722656 675.394531 C 1135.246094 679.125 1136.539062 682.605469 1137.917969 686.058594 C 1139.480469 689.996094 1141.003906 693.957031 1142.511719 697.90625 C 1143.167969 699.660156 1143.984375 701.320312 1145 702.882812 C 1146.761719 705.597656 1148.171875 708.507812 1150.285156 710.960938 C 1150.621094 711.34375 1150.964844 711.714844 1151.316406 712.082031 C 1151.753906 712.550781 1152.710938 712.703125 1153.179688 712.316406 C 1153.96875 711.683594 1154.796875 711.082031 1155.453125 710.328125 C 1156.566406 709.054688 1157.511719 707.628906 1158.617188 706.351562 C 1160.199219 704.503906 1161.15625 702.375 1161.71875 700.046875 C 1162.074219 698.5625 1162.460938 697.070312 1163.035156 695.65625 C 1164.511719 692.066406 1167.257812 690.039062 1171.140625 689.625 C 1173.46875 689.378906 1175.554688 690.734375 1176.300781 692.902344 C 1177.046875 695.054688 1177.136719 697.167969 1176.398438 699.359375 C 1175.1875 702.925781 1173.691406 706.3125 1171.367188 709.285156 C 1171.058594 709.699219 1170.789062 710.136719 1170.46875 710.519531 C 1167.027344 714.664062 1166.191406 719.625 1165.996094 724.78125 C 1165.957031 726.054688 1166.566406 727.070312 1167.546875 727.824219 C 1167.957031 728.125 1168.410156 728.453125 1168.878906 728.523438 C 1169.871094 728.660156 1170.898438 728.6875 1171.902344 728.644531 C 1172.785156 728.621094 1173.539062 728.136719 1174.101562 727.496094 C 1174.648438 726.847656 1175.117188 726.136719 1175.539062 725.410156 C 1178.820312 719.679688 1182.082031 713.933594 1185.351562 708.203125 C 1186.785156 705.695312 1188.222656 703.199219 1189.664062 700.71875 C 1190.609375 699.085938 1191.292969 697.386719 1191.71875 695.550781 C 1192.28125 693.066406 1193.007812 690.625 1193.570312 688.144531 C 1194.449219 684.210938 1196.601562 681.015625 1199.457031 678.257812 C 1201.507812 676.285156 1203.992188 675.378906 1206.855469 675.515625 C 1209.0625 675.613281 1210.789062 676.515625 1211.949219 678.382812 C 1213.339844 680.617188 1213.882812 683.058594 1213.429688 685.675781 C 1213 688.199219 1212.28125 690.613281 1211.191406 692.929688 C 1209.199219 697.085938 1206.757812 700.964844 1203.695312 704.378906 C 1200.726562 707.65625 1198.039062 711.125 1195.621094 714.8125 C 1194.214844 716.9375 1192.746094 719.007812 1191.371094 721.144531 C 1190.546875 722.421875 1189.746094 723.722656 1189.058594 725.082031 C 1187.992188 727.21875 1187.230469 729.457031 1187.1875 731.882812 C 1187.148438 734.417969 1187.015625 736.957031 1187.007812 739.503906 C 1187.007812 741.316406 1187.960938 742.699219 1189.308594 743.851562 C 1189.972656 744.425781 1190.746094 744.742188 1191.59375 744.851562 C 1194.449219 745.222656 1196.957031 744.507812 1199.101562 742.535156 C 1200.96875 740.820312 1202.878906 739.148438 1204.800781 737.476562 C 1206.207031 736.226562 1207.773438 735.214844 1209.542969 734.570312 C 1210.492188 734.226562 1211.476562 733.980469 1212.476562 733.855469 C 1215.210938 733.511719 1217.617188 735.570312 1218.222656 737.875 C 1218.847656 740.203125 1218.402344 742.21875 1216.605469 743.90625 C 1215.605469 744.851562 1214.492188 745.59375 1213.257812 746.167969 C 1211.722656 746.882812 1210.171875 747.582031 1208.679688 748.375 C 1207.789062 748.84375 1206.9375 749.429688 1206.171875 750.089844 C 1205.046875 751.035156 1204.609375 752.339844 1205.03125 753.75 C 1205.4375 755.023438 1206.003906 756.273438 1206.59375 757.496094 C 1207.117188 758.578125 1207.980469 759.425781 1209.007812 760.03125 C 1210.324219 760.8125 1211.691406 761.511719 1213.011719 762.253906 C 1214.824219 763.253906 1216.726562 763.882812 1218.824219 763.828125 C 1219.339844 763.8125 1219.847656 763.8125 1220.347656 763.882812 C 1225.585938 764.566406 1230.398438 763.074219 1235.140625 761.140625 C 1240.207031 759.070312 1244.792969 756.203125 1249.25 753.121094 C 1254.816406 749.253906 1260.464844 745.484375 1265.632812 741.082031 C 1272.066406 735.570312 1278.507812 730.074219 1284.253906 723.820312 C 1284.363281 723.695312 1284.488281 723.574219 1284.609375 723.464844 C 1289.683594 718.914062 1293.894531 713.59375 1298.226562 708.382812 C 1303.105469 702.527344 1307.792969 696.523438 1312.574219 690.570312 C 1317.542969 684.375 1322.636719 678.230469 1328.496094 672.789062 C 1331.71875 669.800781 1334.683594 666.523438 1337.78125 663.398438 C 1341.160156 660.011719 1344.984375 657.242188 1349.296875 655.140625 C 1351.921875 653.867188 1354.628906 653.03125 1357.578125 652.976562 C 1359.101562 652.949219 1360.621094 652.894531 1362.144531 652.769531 C 1363.34375 652.6875 1364.496094 652.839844 1365.667969 653.046875 C 1370.941406 653.921875 1374.167969 657.132812 1375.644531 662.050781 C 1377.019531 666.675781 1377.117188 671.417969 1375.867188 676.105469 C 1375.429688 677.722656 1374.796875 679.328125 1374.058594 680.847656 C 1372.722656 683.578125 1371.261719 686.253906 1369.824219 688.941406 C 1368.675781 691.050781 1367.148438 692.835938 1365.269531 694.34375 C 1361.84375 697.113281 1358.296875 699.703125 1354.570312 702.074219 C 1349.117188 705.53125 1343.421875 708.492188 1337.757812 711.550781 C 1332.390625 714.441406 1327.15625 717.566406 1322.28125 721.257812 C 1320.121094 722.902344 1317.933594 724.507812 1315.691406 726.027344 C 1314.15625 727.070312 1312.550781 728.03125 1310.878906 728.851562 C 1308.761719 729.921875 1306.753906 731.167969 1304.792969 732.527344 C 1302.007812 734.433594 1299.15625 736.257812 1296.347656 738.160156 C 1295.503906 738.722656 1294.671875 739.3125 1293.925781 740 C 1285.746094 747.417969 1278.207031 755.4375 1271.839844 764.472656 C 1269.605469 767.667969 1267.496094 770.957031 1265.484375 774.273438 C 1263.117188 778.199219 1260.945312 782.226562 1258.640625 786.175781 C 1256.820312 789.261719 1255.460938 792.539062 1254.246094 795.882812 C 1252.992188 799.324219 1252.949219 802.835938 1253.808594 806.386719 C 1254.046875 807.386719 1254.453125 808.292969 1255.160156 809.058594 C 1256.542969 810.566406 1257.855469 812.117188 1259.273438 813.585938 C 1261.710938 816.121094 1263.117188 819.109375 1263.441406 822.621094 C 1263.550781 823.800781 1263.605469 824.992188 1263.742188 826.15625 C 1263.949219 827.882812 1264.484375 829.460938 1265.578125 830.832031 C 1266.101562 831.503906 1266.628906 832.164062 1267.082031 832.875 C 1268.375 834.878906 1269.40625 837.003906 1269.769531 839.402344 C 1269.910156 840.417969 1270.15625 841.40625 1270.324219 842.390625 C 1270.589844 843.941406 1271.199219 845.3125 1272.199219 846.503906 C 1272.3125 846.640625 1272.40625 846.792969 1272.507812 846.917969 C 1275.683594 850.550781 1276.851562 854.882812 1276.875 859.597656 C 1276.882812 859.925781 1276.898438 860.269531 1276.898438 860.613281 C 1276.84375 864.054688 1276.554688 864.628906 1278.699219 868.359375 C 1279.894531 870.429688 1280.476562 872.746094 1280.585938 875.160156 C 1280.621094 875.996094 1280.75 876.832031 1280.769531 877.695312 C 1280.839844 880.929688 1282.191406 883.675781 1284.542969 885.742188 C 1287.84375 888.648438 1289.792969 892.296875 1291.265625 896.328125 C 1292.371094 899.371094 1293.261719 902.445312 1293.660156 905.664062 C 1294.152344 909.753906 1295.460938 913.5625 1297.511719 917.140625 C 1298.101562 918.171875 1298.667969 919.210938 1299.257812 920.242188 C 1301.371094 924.011719 1302.226562 928.152344 1302.679688 932.386719 C 1302.796875 933.554688 1302.640625 934.746094 1302.542969 935.925781 C 1302.417969 937.449219 1302.214844 938.957031 1302.078125 940.476562 C 1301.953125 941.835938 1301.988281 943.179688 1302.332031 944.523438 C 1303.535156 949.304688 1303.484375 954.257812 1304.078125 959.136719 C 1304.4375 962.152344 1303.707031 964.84375 1301.71875 967.160156 C 1301.28125 967.679688 1300.851562 968.214844 1300.445312 968.75 C 1299.535156 969.996094 1298.957031 971.421875 1298.855469 972.972656 C 1298.46875 978.222656 1298.183594 983.460938 1299.925781 988.574219 C 1300.859375 991.316406 1301.246094 994.15625 1301.179688 997.074219 C 1301.128906 999.269531 1301.34375 1001.476562 1301.40625 1003.671875 C 1301.5 1006.414062 1300.800781 1009.046875 1300.136719 1011.664062 C 1298.414062 1018.464844 1295.515625 1024.769531 1291.617188 1030.554688 C 1289.332031 1033.96875 1287.601562 1037.617188 1285.78125 1041.25 C 1284.34375 1044.117188 1283.128906 1047.105469 1281.8125 1050.039062 C 1281.476562 1050.820312 1281.125 1051.589844 1280.867188 1052.398438 C 1279.515625 1056.59375 1278.015625 1060.707031 1275.710938 1064.503906 C 1274.847656 1065.929688 1274.421875 1067.617188 1273.785156 1069.191406 C 1272.097656 1073.335938 1269.535156 1076.871094 1266.265625 1079.902344 C 1265.757812 1080.355469 1265.207031 1080.753906 1264.6875 1081.175781 C 1263 1082.535156 1262.1875 1084.359375 1261.871094 1086.425781 C 1261.6875 1087.59375 1261.679688 1088.785156 1261.628906 1089.976562 C 1261.527344 1092.554688 1260.992188 1095.011719 1259.664062 1097.257812 C 1258.792969 1098.742188 1258.367188 1100.34375 1258.15625 1102.058594 C 1257.820312 1104.8125 1256.570312 1107.253906 1254.636719 1109.230469 C 1253.445312 1110.464844 1252.570312 1111.941406 1251.394531 1113.109375 C 1248.933594 1115.535156 1248.058594 1118.539062 1247.613281 1121.773438 C 1247.390625 1123.445312 1247.105469 1125.105469 1246.609375 1126.738281 C 1245.710938 1129.726562 1244.257812 1132.414062 1241.96875 1134.511719 C 1238.554688 1137.609375 1236.074219 1141.492188 1232.976562 1144.847656 C 1231.605469 1146.34375 1230.742188 1148.222656 1230.007812 1150.140625 C 1227.050781 1157.902344 1224.488281 1165.785156 1223.425781 1174.082031 C 1223.242188 1175.578125 1223.105469 1177.125 1223.171875 1178.632812 C 1223.335938 1182.183594 1223.542969 1185.734375 1223.925781 1189.257812 C 1224.117188 1191.109375 1224.707031 1192.90625 1225.171875 1194.703125 C 1226.148438 1198.472656 1227.140625 1202.230469 1228.164062 1205.984375 C 1228.476562 1207.136719 1228.828125 1208.273438 1229.316406 1209.34375 C 1231 1213.035156 1232.777344 1216.695312 1234.492188 1220.382812 C 1236.855469 1225.46875 1239.734375 1230.253906 1242.683594 1235.011719 C 1244.929688 1238.617188 1246.714844 1242.457031 1248.507812 1246.28125 C 1250.167969 1249.804688 1251.667969 1253.410156 1253.136719 1257.015625 C 1255.046875 1261.71875 1257.066406 1266.382812 1259.582031 1270.824219 C 1261.234375 1273.757812 1262.699219 1276.816406 1264.207031 1279.859375 C 1266.945312 1285.382812 1270.777344 1290.113281 1274.992188 1294.542969 C 1278.152344 1297.859375 1281.386719 1301.097656 1284.582031 1304.375 C 1289.445312 1309.351562 1293.816406 1314.738281 1297.691406 1320.539062 C 1299.203125 1322.800781 1300.410156 1325.214844 1301.207031 1327.835938 C 1301.796875 1329.765625 1302.480469 1331.683594 1303.078125 1333.621094 C 1303.332031 1334.429688 1303.625 1335.265625 1303.640625 1336.085938 C 1303.695312 1343.203125 1301.023438 1348.949219 1294.925781 1352.855469 C 1293.492188 1353.789062 1291.851562 1354.265625 1290.109375 1354.324219 C 1287.535156 1354.40625 1285.082031 1354.007812 1282.683594 1352.953125 C 1277.21875 1350.550781 1276.410156 1349.90625 1272.847656 1345.3125 C 1270.207031 1341.898438 1268.601562 1337.992188 1267.203125 1334.003906 C 1265.757812 1329.847656 1264.46875 1325.636719 1263.386719 1321.359375 C 1262.023438 1315.945312 1260.472656 1310.570312 1258.96875 1305.183594 C 1258.710938 1304.210938 1258.328125 1303.261719 1258.003906 1302.304688 C 1256.625 1298.300781 1255.242188 1294.296875 1253.878906 1290.292969 C 1252.949219 1287.5625 1252.046875 1284.835938 1251.140625 1282.105469 C 1248.960938 1275.511719 1246.453125 1269.042969 1243.921875 1262.585938 C 1243.429688 1261.308594 1243.050781 1260.019531 1242.574219 1258.746094 C 1241.804688 1256.6875 1241.003906 1254.632812 1240.199219 1252.589844 C 1239.652344 1251.164062 1239.089844 1249.75 1238.5 1248.351562 C 1237.964844 1247.105469 1237.5 1245.816406 1236.800781 1244.675781 C 1235.445312 1242.511719 1234.414062 1240.191406 1233.550781 1237.796875 C 1231.878906 1233.144531 1229.589844 1228.8125 1226.640625 1224.839844 C 1224.425781 1221.847656 1222.265625 1218.804688 1220.03125 1215.816406 C 1214.355469 1208.21875 1207.203125 1202.351562 1198.917969 1197.828125 C 1196.105469 1196.292969 1193.296875 1194.730469 1190.15625 1193.878906 C 1188.332031 1193.371094 1186.53125 1193 1184.65625 1192.945312 C 1180.078125 1192.824219 1175.515625 1193.125 1170.953125 1193.605469 C 1168.90625 1193.824219 1166.984375 1194.496094 1165.273438 1195.632812 C 1163.621094 1196.71875 1161.824219 1197.019531 1159.9375 1196.757812 C 1155.351562 1196.113281 1150.785156 1196.691406 1146.226562 1197.019531 C 1144.234375 1197.171875 1142.238281 1197.730469 1140.277344 1198.28125 C 1137.945312 1198.953125 1136.082031 1200.449219 1134.460938 1202.230469 C 1133.222656 1203.613281 1132.078125 1205.082031 1130.878906 1206.507812 C 1130.289062 1207.191406 1129.542969 1207.535156 1128.652344 1207.507812 C 1127.800781 1207.496094 1126.949219 1207.4375 1126.101562 1207.382812 C 1125.085938 1207.328125 1124.085938 1207.25 1123.078125 1207.179688 C 1118.757812 1206.890625 1115.078125 1208.398438 1111.894531 1211.179688 C 1109.859375 1212.976562 1107.878906 1214.84375 1105.875 1216.652344 C 1104.957031 1217.472656 1103.929688 1217.980469 1102.660156 1217.941406 C 1100.625 1217.886719 1098.625 1218.203125 1096.609375 1218.558594 C 1094.566406 1218.914062 1092.644531 1219.464844 1090.972656 1220.683594 C 1089.425781 1221.820312 1087.726562 1222.464844 1085.804688 1222.601562 C 1084.96875 1222.660156 1084.136719 1222.90625 1083.316406 1223.097656 C 1081.175781 1223.605469 1079.042969 1224.109375 1076.835938 1224.273438 C 1074.398438 1224.453125 1072.273438 1225.46875 1070.648438 1227.386719 C 1069.980469 1228.15625 1069.296875 1228.925781 1068.527344 1229.582031 C 1067.183594 1230.734375 1065.59375 1231.226562 1063.8125 1230.953125 C 1063.140625 1230.84375 1062.484375 1230.691406 1061.824219 1230.542969 C 1061.164062 1230.378906 1060.507812 1230.199219 1059.851562 1230.0625 C 1055.171875 1229.0625 1051.171875 1230.609375 1047.503906 1233.351562 C 1046.824219 1233.84375 1046.277344 1234.503906 1045.742188 1235.164062 C 1043.671875 1237.660156 1042.203125 1240.535156 1040.75 1243.386719 C 1040.449219 1243.992188 1040.269531 1244.664062 1040.09375 1245.308594 C 1039.433594 1247.761719 1038.816406 1250.21875 1038.144531 1252.671875 C 1037.351562 1255.632812 1037.0625 1258.675781 1036.816406 1261.707031 C 1036.539062 1265.078125 1036.472656 1268.480469 1036.316406 1271.867188 C 1036.292969 1272.375 1036.28125 1272.882812 1036.308594 1273.386719 C 1037.089844 1282.835938 1037.335938 1292.335938 1038.851562 1301.714844 C 1039.714844 1307.0625 1040.097656 1312.492188 1040.714844 1317.878906 C 1040.84375 1319.042969 1040.878906 1320.277344 1041.257812 1321.375 C 1042.917969 1326.230469 1043.066406 1331.355469 1044.054688 1336.335938 C 1044.21875 1337.15625 1044.179688 1338.019531 1044.199219 1338.871094 C 1044.289062 1343.105469 1044.835938 1347.300781 1045.660156 1351.457031 C 1046.289062 1354.609375 1046.878906 1357.777344 1046.742188 1361.042969 C 1046.625 1363.589844 1047.269531 1366.074219 1047.765625 1368.566406 C 1048.085938 1370.226562 1048.492188 1371.871094 1048.703125 1373.546875 C 1049.222656 1377.414062 1049.609375 1381.292969 1050.101562 1385.160156 C 1050.335938 1386.996094 1050.609375 1388.84375 1051.019531 1390.65625 C 1051.84375 1394.300781 1052.417969 1397.976562 1052.972656 1401.652344 C 1054.035156 1408.683594 1055.1875 1415.707031 1056.230469 1422.738281 C 1057.066406 1428.429688 1057.757812 1434.144531 1058.59375 1439.851562 C 1059.191406 1443.867188 1059.753906 1447.882812 1060.863281 1451.816406 C 1061.507812 1454.09375 1061.835938 1456.4375 1062.042969 1458.8125 C 1062.359375 1462.542969 1062.738281 1466.226562 1062.671875 1469.972656 C 1062.660156 1470.644531 1062.6875 1471.34375 1062.851562 1472.003906 C 1064.421875 1478.296875 1064.550781 1484.738281 1064.746094 1491.167969 C 1064.8125 1493.746094 1065.292969 1496.257812 1066.183594 1498.613281 C 1068.015625 1503.414062 1068.71875 1508.429688 1069.40625 1513.476562 C 1069.835938 1516.660156 1070.433594 1519.808594 1070.96875 1522.992188 C 1071.09375 1523.648438 1071.1875 1524.335938 1071.421875 1524.980469 C 1074.066406 1532.3125 1075.363281 1540.046875 1077.921875 1547.410156 C 1078.414062 1548.835938 1078.839844 1550.316406 1079.113281 1551.8125 C 1080.292969 1558.160156 1082.203125 1564.300781 1083.800781 1570.539062 C 1084.480469 1573.171875 1085.105469 1575.804688 1085.804688 1578.410156 C 1086.640625 1581.523438 1087.421875 1584.648438 1088.828125 1587.570312 C 1089.480469 1588.941406 1089.902344 1590.421875 1090.300781 1591.886719 C 1092.632812 1600.554688 1094.855469 1609.246094 1096.773438 1618.019531 C 1097.484375 1621.328125 1098.472656 1624.574219 1099.507812 1627.796875 C 1101.53125 1634.089844 1103.339844 1640.425781 1104.75 1646.882812 C 1105.257812 1649.214844 1106.027344 1651.449219 1106.816406 1653.683594 C 1108.660156 1658.949219 1110.976562 1664.046875 1112.71875 1669.339844 C 1113.789062 1672.550781 1115.324219 1675.605469 1116.738281 1678.675781 C 1118.667969 1682.871094 1119.902344 1687.261719 1120.792969 1691.742188 C 1122.300781 1699.214844 1123.605469 1706.726562 1124.453125 1714.3125 C 1124.671875 1716.328125 1124.769531 1718.355469 1124.824219 1720.386719 C 1124.941406 1724.789062 1125.007812 1729.203125 1125.085938 1733.601562 C 1125.097656 1734.601562 1125.132812 1735.632812 1125.03125 1736.644531 C 1124.070312 1745.96875 1121.882812 1755.015625 1118.4375 1763.710938 C 1116.371094 1768.910156 1113.773438 1773.882812 1109.542969 1777.777344 C 1106.441406 1781.683594 1102.550781 1784.578125 1098.117188 1786.894531 C 1095.691406 1788.171875 1093.332031 1789.335938 1090.617188 1789.816406 C 1088.957031 1790.105469 1087.339844 1790.640625 1085.707031 1791.089844 C 1085.066406 1791.285156 1084.417969 1791.53125 1084.105469 1792.214844 C 1083.089844 1792.175781 1082.074219 1792.144531 1081.054688 1792.121094 "/>
<path style=" stroke:none;fill-rule:evenodd;fill:rgb(13.299561%,15.299988%,21.199036%);fill-opacity:1;" d="M 1067.917969 510.835938 C 1068.589844 512.113281 1070.011719 512.386719 1071.039062 513.183594 C 1072.695312 514.472656 1073.863281 516.046875 1074.285156 518.117188 C 1074.382812 518.597656 1074.480469 519.132812 1074.367188 519.601562 C 1073.746094 522.367188 1072.324219 524.574219 1069.664062 525.742188 C 1068.597656 526.207031 1067.4375 526.550781 1066.292969 526.730469 C 1064.140625 527.042969 1062.304688 526.261719 1060.96875 524.574219 C 1060.246094 523.671875 1059.710938 522.589844 1059.230469 521.53125 C 1057.914062 518.625 1058.691406 515.417969 1061.140625 513.347656 C 1062.042969 512.578125 1063.015625 511.949219 1064.203125 511.703125 C 1064.855469 511.550781 1065.523438 511.425781 1065.890625 510.769531 C 1066.5625 510.78125 1067.253906 510.808594 1067.917969 510.835938 "/>
<path style=" stroke:none;fill-rule:evenodd;fill:rgb(13.299561%,15.299988%,21.199036%);fill-opacity:1;" d="M 1466.921875 963.742188 C 1466.394531 963.910156 1466.121094 964.320312 1465.960938 964.8125 C 1465.460938 966.390625 1464.1875 967.1875 1462.820312 967.886719 C 1459.777344 969.460938 1456.960938 967.597656 1455.871094 965.691406 C 1455.28125 964.675781 1454.871094 963.550781 1454.871094 962.347656 C 1454.855469 961.6875 1454.898438 961.003906 1454.925781 960.332031 C 1455.019531 958.027344 1456.378906 956.640625 1458.371094 955.804688 C 1459.976562 955.136719 1461.691406 955.160156 1463.300781 955.722656 C 1464.605469 956.1875 1465.660156 957.039062 1466.035156 958.464844 C 1466.257812 959.261719 1466.214844 960.152344 1467.003906 960.6875 C 1466.976562 961.714844 1466.949219 962.730469 1466.921875 963.742188 "/>
<path style=" stroke:none;fill-rule:evenodd;fill:rgb(13.299561%,15.299988%,21.199036%);fill-opacity:1;" d="M 1379.515625 933.59375 C 1379.535156 934.554688 1379.535156 935.0625 1379.554688 935.570312 C 1379.652344 937.832031 1379.042969 939.875 1378.019531 941.890625 C 1375.59375 946.703125 1371.941406 950.402344 1367.832031 953.734375 C 1366.492188 954.820312 1364.917969 955.394531 1363.171875 955.53125 C 1361.828125 955.640625 1360.46875 955.804688 1359.160156 956.078125 C 1355.609375 956.835938 1352.050781 956.558594 1348.582031 955.832031 C 1345.453125 955.175781 1342.414062 954.035156 1339.617188 952.40625 C 1338.152344 951.539062 1336.902344 950.375 1335.847656 949.046875 C 1332.886719 945.261719 1330.527344 941.164062 1329.953125 936.308594 C 1329.375 931.578125 1329.25 926.863281 1330.882812 922.269531 C 1331.800781 919.675781 1333.078125 917.332031 1334.886719 915.261719 C 1336.675781 913.21875 1338.652344 911.398438 1340.8125 909.722656 C 1343.882812 907.351562 1347.378906 906.308594 1351.183594 906.148438 C 1355.796875 905.925781 1360.339844 906.597656 1364.730469 907.871094 C 1367.449219 908.667969 1369.996094 910.203125 1372.089844 912.234375 C 1373.304688 913.398438 1374.378906 914.714844 1375.445312 916.03125 C 1376.609375 917.496094 1377.472656 919.15625 1377.859375 921.023438 C 1378.742188 925.3125 1379.972656 929.578125 1379.515625 933.59375 "/>
<path style=" stroke:none;fill-rule:evenodd;fill:rgb(13.299561%,15.299988%,21.199036%);fill-opacity:1;" d="M 890.371094 620.839844 C 890.714844 623.964844 889.332031 626.789062 887.253906 629.382812 C 885.339844 631.765625 883.140625 633.878906 880.847656 635.878906 C 878.464844 637.964844 875.453125 638.609375 872.457031 639.183594 C 869.25 639.789062 866.050781 639.457031 862.917969 638.675781 C 861.785156 638.402344 860.707031 637.839844 859.644531 637.347656 C 855.792969 635.550781 853.050781 632.574219 851.296875 628.804688 C 848.277344 622.359375 847.902344 615.808594 851.089844 609.238281 C 852.527344 606.265625 854.65625 603.90625 857.464844 602.191406 C 858.910156 601.328125 860.433594 600.589844 861.933594 599.808594 C 867.863281 596.691406 868.769531 596.953125 875.117188 597.476562 C 879.753906 597.859375 883.34375 600.230469 885.914062 604.195312 C 888.566406 608.253906 890.878906 614.476562 890.371094 620.839844 "/>
<path style=" stroke:none;fill-rule:evenodd;fill:rgb(13.299561%,15.299988%,21.199036%);fill-opacity:1;" d="M 1314.054688 1374.066406 C 1317.640625 1374.078125 1321.082031 1374.738281 1324.398438 1376.175781 C 1327.222656 1377.382812 1329.082031 1379.425781 1330.273438 1382.15625 C 1332.136719 1386.417969 1332.949219 1390.863281 1332.359375 1395.507812 C 1332.253906 1396.34375 1332.097656 1397.179688 1331.828125 1397.976562 C 1329.949219 1403.570312 1326.367188 1407.671875 1320.808594 1409.78125 C 1316.34375 1411.46875 1311.878906 1411.359375 1307.609375 1408.972656 C 1306.136719 1408.152344 1304.691406 1407.289062 1303.234375 1406.421875 C 1301.296875 1405.257812 1299.890625 1403.628906 1298.910156 1401.585938 C 1296.722656 1397.015625 1296.070312 1392.246094 1297.058594 1387.269531 C 1297.15625 1386.789062 1297.277344 1386.269531 1297.496094 1385.816406 C 1298.609375 1383.554688 1299.726562 1381.277344 1301.125 1379.152344 C 1303.359375 1375.738281 1306.628906 1374.285156 1310.507812 1373.96875 C 1311.683594 1373.875 1312.875 1374.007812 1314.054688 1374.066406 "/>
<path style=" stroke:none;fill-rule:evenodd;fill:rgb(13.299561%,15.299988%,21.199036%);fill-opacity:1;" d="M 709.054688 1125.421875 C 709.21875 1120.800781 711.472656 1116.246094 714.796875 1113.617188 C 715.730469 1112.875 716.71875 1112.21875 717.730469 1111.601562 C 720.769531 1109.789062 724.054688 1109.339844 727.507812 1109.96875 C 727.679688 1109.996094 727.835938 1110.035156 728.007812 1110.078125 C 736.085938 1111.957031 739.757812 1115.894531 741.417969 1125.777344 C 741.546875 1126.601562 741.492188 1127.464844 741.515625 1128.300781 C 741.5625 1131.125 740.636719 1133.636719 739.019531 1135.882812 C 736.878906 1138.84375 733.953125 1140.832031 730.632812 1142.246094 C 729.238281 1142.832031 727.714844 1143.160156 726.164062 1143 C 722.40625 1142.585938 718.898438 1141.601562 715.921875 1139.078125 C 713.398438 1136.953125 711.5625 1134.359375 710.109375 1131.46875 C 709.109375 1129.464844 708.820312 1127.273438 709.054688 1125.421875 "/>
<path style=" stroke:none;fill-rule:evenodd;fill:rgb(13.299561%,15.299988%,21.199036%);fill-opacity:1;" d="M 901.90625 1246.292969 C 902.089844 1248.527344 901.09375 1250.972656 899.503906 1253.261719 C 897.84375 1255.660156 895.78125 1257.621094 893.421875 1259.277344 C 890.6875 1261.199219 887.519531 1261.734375 884.269531 1261.527344 C 883.132812 1261.472656 881.917969 1261.089844 880.902344 1260.527344 C 876.480469 1258.128906 873.179688 1254.605469 870.976562 1250.066406 C 870.695312 1249.464844 870.417969 1248.804688 870.347656 1248.148438 C 869.96875 1244.59375 869.984375 1241.085938 871.394531 1237.699219 C 871.917969 1236.4375 872.746094 1235.367188 873.65625 1234.382812 C 875.769531 1232.066406 878.4375 1230.582031 881.328125 1229.636719 C 884.613281 1228.554688 887.992188 1228.566406 891.234375 1229.96875 C 893.25 1230.828125 895.222656 1231.761719 897.019531 1233.066406 C 899.003906 1234.519531 900.324219 1236.316406 901.050781 1238.6875 C 901.769531 1241.003906 901.851562 1243.332031 901.90625 1246.292969 "/>
<path style=" stroke:none;fill-rule:evenodd;fill:rgb(13.299561%,15.299988%,21.199036%);fill-opacity:1;" d="M 689.0625 738.382812 C 689.199219 737.199219 689.339844 736.035156 689.503906 734.859375 C 689.660156 733.652344 690.148438 732.582031 690.886719 731.636719 C 691.605469 730.6875 692.320312 729.742188 692.972656 728.757812 C 694.15625 727.015625 695.769531 725.835938 697.679688 725.027344 C 699.894531 724.082031 702.210938 723.65625 704.597656 723.601562 C 706.332031 723.558594 708.011719 724.039062 709.410156 725 C 713.53125 727.839844 717.011719 731.25 718.453125 736.242188 C 720.125 742.054688 719.28125 747.308594 714.867188 751.695312 C 714.023438 752.53125 713.113281 753.3125 712.144531 753.984375 C 708.328125 756.617188 704.269531 756.738281 700.078125 754.945312 C 699.15625 754.546875 698.285156 753.996094 697.386719 753.53125 C 693.765625 751.625 691.511719 748.484375 689.859375 744.878906 C 689.449219 743.976562 689.269531 742.933594 689.160156 741.945312 C 689.035156 740.765625 689.089844 739.574219 689.0625 738.382812 "/>
<path style=" stroke:none;fill-rule:evenodd;fill:rgb(13.299561%,15.299988%,21.199036%);fill-opacity:1;" d="M 1315.390625 833.21875 C 1316.90625 833.644531 1318.789062 833.808594 1320.421875 834.792969 C 1321.429688 835.398438 1322.429688 836.042969 1323.371094 836.753906 C 1325.179688 838.140625 1326.386719 839.949219 1326.886719 842.183594 C 1327.476562 844.832031 1328.074219 847.464844 1328.519531 850.136719 C 1329.238281 854.539062 1327.660156 858.105469 1324.269531 860.902344 C 1322.4375 862.421875 1320.355469 863.546875 1318.171875 864.503906 C 1316.21875 865.34375 1314.316406 865.371094 1312.265625 864.710938 C 1307.082031 863.039062 1303.511719 859.667969 1301.417969 854.742188 C 1300.570312 852.742188 1300 850.589844 1299.527344 848.464844 C 1298.984375 846.078125 1299.328125 843.734375 1300.289062 841.5 C 1300.828125 840.238281 1301.527344 839.113281 1302.695312 838.304688 C 1304.09375 837.347656 1305.429688 836.316406 1306.863281 835.410156 C 1309.371094 833.820312 1312.210938 833.421875 1315.390625 833.21875 "/>
<path style=" stroke:none;fill-rule:evenodd;fill:rgb(13.299561%,15.299988%,21.199036%);fill-opacity:1;" d="M 722.386719 943.589844 C 723.066406 943.644531 723.75 943.65625 724.410156 943.738281 C 726.308594 944.015625 728.015625 944.742188 729.386719 946.085938 C 733.839844 950.417969 734.964844 957.535156 732.734375 962.539062 C 731.492188 965.308594 729.46875 967.269531 726.5625 968.199219 C 723.601562 969.160156 720.613281 969.230469 717.59375 968.171875 C 714.214844 966.980469 711 965.511719 708.058594 963.472656 C 707.078125 962.785156 706.566406 961.523438 706.957031 960.34375 C 707.273438 959.398438 707.683594 958.4375 708.203125 957.601562 C 709.191406 955.984375 709.882812 954.296875 710.21875 952.417969 C 710.453125 951.101562 710.960938 949.816406 711.472656 948.582031 C 712.234375 946.769531 713.648438 945.566406 715.429688 944.824219 C 717.652344 943.90625 719.980469 943.507812 722.386719 943.589844 "/>
<path style=" stroke:none;fill-rule:evenodd;fill:rgb(13.299561%,15.299988%,21.199036%);fill-opacity:1;" d="M 1127.347656 614.722656 C 1127.304688 611.269531 1128.816406 608.511719 1131.253906 606.25 C 1132.351562 605.222656 1133.667969 604.414062 1134.957031 603.632812 C 1137.105469 602.34375 1139.460938 602.34375 1141.828125 602.78125 C 1142.304688 602.878906 1142.792969 603.097656 1143.210938 603.371094 C 1145.460938 604.769531 1146.886719 606.730469 1147.460938 609.375 C 1148.121094 612.433594 1147.886719 615.410156 1146.996094 618.371094 C 1145.363281 623.71875 1140.441406 625.941406 1136.128906 625.734375 C 1131.953125 625.542969 1128.101562 621.90625 1127.511719 617.753906 C 1127.375 616.753906 1127.386719 615.722656 1127.347656 614.722656 "/>
<path style=" stroke:none;fill-rule:evenodd;fill:rgb(13.299561%,15.299988%,21.199036%);fill-opacity:1;" d="M 1154.441406 1234.519531 C 1154.414062 1234.886719 1154.382812 1235.738281 1154.25 1236.574219 C 1154.003906 1238.175781 1153.097656 1239.34375 1151.617188 1240.054688 C 1149.75 1240.933594 1147.710938 1241.085938 1145.734375 1241.46875 C 1145.253906 1241.578125 1144.707031 1241.46875 1144.226562 1241.375 C 1140.25 1240.507812 1137.464844 1238.414062 1136.773438 1234.148438 C 1136.644531 1233.3125 1136.371094 1232.5 1136.257812 1231.664062 C 1136.042969 1229.921875 1136.464844 1228.304688 1137.371094 1226.828125 C 1138.015625 1225.757812 1138.933594 1224.960938 1140.085938 1224.632812 C 1143.390625 1223.699219 1146.71875 1223.359375 1150.027344 1224.6875 C 1151.65625 1225.34375 1152.890625 1226.414062 1153.578125 1228.085938 C 1154.398438 1230.074219 1154.570312 1231.007812 1154.441406 1234.519531 "/>
<path style=" stroke:none;fill-rule:evenodd;fill:rgb(13.299561%,15.299988%,21.199036%);fill-opacity:1;" d="M 1296.441406 1093.832031 C 1299.011719 1093.542969 1301.0625 1094.628906 1302.734375 1096.4375 C 1303.292969 1097.039062 1303.792969 1097.820312 1303.980469 1098.601562 C 1304.515625 1100.757812 1304.621094 1102.933594 1303.957031 1105.128906 C 1303.441406 1106.800781 1302.441406 1108.089844 1301.070312 1109.175781 C 1298.273438 1111.367188 1295.222656 1111.640625 1291.945312 1110.628906 C 1291.308594 1110.421875 1290.671875 1110.160156 1290.046875 1109.914062 C 1288.894531 1109.449219 1288.023438 1108.640625 1287.621094 1107.476562 C 1287.171875 1106.183594 1286.742188 1104.894531 1286.515625 1103.582031 C 1285.578125 1098.273438 1289.566406 1094.203125 1294.40625 1093.777344 C 1295.070312 1093.722656 1295.757812 1093.804688 1296.441406 1093.832031 "/>
<path style=" stroke:none;fill-rule:evenodd;fill:rgb(13.299561%,15.299988%,21.199036%);fill-opacity:1;" d="M 864.707031 1275.59375 C 865.378906 1275.648438 866.054688 1275.675781 866.722656 1275.757812 C 868.769531 1276.046875 870.183594 1277.242188 870.804688 1279.117188 C 871.273438 1280.542969 871.484375 1282.09375 871.546875 1283.601562 C 871.613281 1284.972656 871.105469 1286.289062 869.996094 1287.207031 C 868.824219 1288.167969 867.640625 1289.140625 866.328125 1289.894531 C 862.320312 1292.144531 858.65625 1289.320312 857.582031 1286.550781 C 857.027344 1285.097656 856.917969 1283.617188 856.8125 1282.078125 C 856.65625 1279.777344 857.628906 1278.214844 859.414062 1276.941406 C 861.015625 1275.800781 862.792969 1275.457031 864.707031 1275.59375 "/>
<path style=" stroke:none;fill-rule:evenodd;fill:rgb(13.299561%,15.299988%,21.199036%);fill-opacity:1;" d="M 653.074219 970.820312 C 653.457031 970.984375 654.292969 971.1875 654.949219 971.65625 C 655.910156 972.339844 656.761719 973.175781 657.609375 974 C 659.40625 975.726562 659.722656 978.839844 658.28125 981.007812 C 657.152344 982.707031 655.703125 984.117188 653.972656 985.230469 C 652.785156 985.96875 651.460938 986.257812 650.082031 985.832031 C 649.125 985.53125 648.125 985.214844 647.273438 984.695312 C 644.683594 983.089844 644.058594 981.019531 644.542969 978.703125 C 644.765625 977.714844 645.039062 976.726562 645.3125 975.753906 C 646.273438 972.492188 649.097656 970.585938 653.074219 970.820312 "/>
<path style=" stroke:none;fill-rule:evenodd;fill:rgb(13.299561%,15.299988%,21.199036%);fill-opacity:1;" d="M 1046.894531 655.652344 C 1042.988281 655.554688 1040.613281 652.621094 1040.238281 649.21875 C 1039.90625 646.289062 1041.167969 643.96875 1043.445312 642.1875 C 1043.945312 641.777344 1044.628906 641.5 1045.277344 641.390625 C 1047.371094 641.035156 1049.183594 641.527344 1050.953125 642.859375 C 1053.160156 644.546875 1054.164062 646.722656 1054.488281 649.328125 C 1054.703125 651.136719 1054.007812 652.660156 1052.542969 653.773438 C 1050.882812 655.035156 1049.019531 655.746094 1046.894531 655.652344 "/>
<path style=" stroke:none;fill-rule:evenodd;fill:rgb(13.299561%,15.299988%,21.199036%);fill-opacity:1;" d="M 1429.457031 953.433594 C 1428.859375 953.253906 1427.839844 953.105469 1426.941406 952.707031 C 1424.761719 951.746094 1423.882812 949.554688 1424.574219 947.195312 C 1424.828125 946.359375 1425.363281 945.714844 1426.160156 945.304688 C 1427.546875 944.589844 1429.039062 944.414062 1430.597656 944.480469 C 1432.902344 944.589844 1434.695312 946.441406 1434.742188 948.785156 C 1434.789062 951.160156 1433.179688 953.078125 1430.875 953.351562 C 1430.539062 953.40625 1430.199219 953.394531 1429.457031 953.433594 "/>
<path style=" stroke:none;fill-rule:evenodd;fill:rgb(13.299561%,15.299988%,21.199036%);fill-opacity:1;" d="M 849.09375 577.28125 C 846.1875 577.265625 843.972656 574.222656 845.605469 570.847656 C 846.511719 568.957031 848.183594 567.820312 850.199219 567.269531 C 851.207031 566.980469 852.199219 567.230469 852.96875 567.996094 C 853.707031 568.710938 854.210938 569.558594 854.339844 570.601562 C 854.53125 572.136719 854.242188 573.578125 853.453125 574.933594 C 852.535156 576.527344 851.179688 577.308594 849.09375 577.28125 "/>
<path style=" stroke:none;fill-rule:evenodd;fill:rgb(13.299561%,15.299988%,21.199036%);fill-opacity:1;" d="M 736.453125 899.46875 C 738.367188 899.523438 740.027344 900.839844 740.546875 902.675781 C 741.128906 904.761719 740.582031 906.351562 738.875 907.558594 C 737.40625 908.585938 735.980469 908.640625 734.609375 907.761719 C 733.871094 907.296875 733.308594 906.664062 733.101562 905.816406 C 732.902344 904.992188 732.800781 904.15625 732.730469 903.308594 C 732.546875 901.15625 734.289062 899.386719 736.453125 899.46875 "/>
<path style=" stroke:none;fill-rule:evenodd;fill:rgb(13.299561%,15.299988%,21.199036%);fill-opacity:1;" d="M 1412.132812 943.753906 C 1412.121094 944.660156 1411.707031 945.398438 1411.078125 945.976562 C 1410.070312 946.921875 1408.828125 947.441406 1407.433594 947.457031 C 1406.949219 947.457031 1406.421875 947.332031 1405.976562 947.140625 C 1404.320312 946.398438 1403.289062 944.273438 1403.707031 942.507812 C 1404.175781 940.574219 1405.894531 939.558594 1407.992188 939.886719 C 1409.738281 940.160156 1411.058594 941.203125 1411.886719 942.792969 C 1412.039062 943.082031 1412.050781 943.4375 1412.132812 943.753906 "/>
<path style=" stroke:none;fill-rule:evenodd;fill:rgb(13.299561%,15.299988%,21.199036%);fill-opacity:1;" d="M 867.460938 1309.417969 C 868.933594 1309.378906 870.074219 1310.449219 870.113281 1311.871094 C 870.160156 1313.300781 869.695312 1314.507812 868.804688 1315.605469 C 867.941406 1316.660156 866.128906 1316.6875 865.253906 1315.574219 C 864.847656 1315.054688 864.472656 1314.449219 864.265625 1313.832031 C 863.414062 1311.351562 864.773438 1309.5 867.460938 1309.417969 "/>
<path style=" stroke:none;fill-rule:evenodd;fill:rgb(13.299561%,15.299988%,21.199036%);fill-opacity:1;" d="M 696.742188 962.429688 C 697.496094 962.484375 698.003906 962.949219 698.3125 963.539062 C 699.203125 965.25 698.757812 967.242188 697.261719 968.597656 C 696.070312 969.695312 694.046875 969.007812 693.675781 967.390625 C 693.253906 965.582031 694.128906 963.539062 695.769531 962.621094 C 696.035156 962.46875 696.414062 962.484375 696.742188 962.429688 "/>
</g>
</svg>
